<?xml version="1.0" encoding="UTF-8"?>
<svg id="SVGDoc" width="24" height="24" xmlns="http://www.w3.org/2000/svg" version="1.1" xmlns:xlink="http://www.w3.org/1999/xlink" xmlns:avocode="https://avocode.com/" viewBox="0 0 24 24"><defs></defs><desc>Generated with Avocode.</desc><g><g><title>Group</title><g><title>Vector</title><path d="M13.88722,14.60763c1.1975,0.51316 2.0786,1.65076 2.41739,3.12132c0.43546,1.88973 -0.05989,4.03048 -1.32989,5.90355h0.00019c1.78275,-0.4527 3.4364,-1.31274 4.83061,-2.51255c-0.81297,-1.51817 -0.82271,-2.94911 -0.0597,-4.98318c0.36964,-0.98571 0.38954,-1.82145 0.05893,-2.4842c-0.40313,-0.80835 -1.22929,-1.147 -1.44108,-1.22238l-7.38367,-0.00019c0.36601,0.55371 1.17972,1.43745 2.90704,2.17768z" fill="#f37536" fill-opacity="1"></path></g><g><title>Vector</title><path d="M11.58757,11.56859v0l-2.29822,-3.17642c-0.11958,-0.1588 -0.30669,-0.25217 -0.50547,-0.25217c-0.19859,0 -0.3859,0.09336 -0.50546,0.25217l-2.29842,3.17642v0z" fill="#f37536" fill-opacity="1"></path></g><g><title>Vector</title><path d="M7.12018,8.5344v0l-1.38157,-1.82429c-0.14789,-0.17755 -0.36696,-0.2801 -0.59789,-0.2801c-0.23093,0 -0.45,0.10255 -0.5979,0.28011l-3.68282,4.86275v0h4.06188v0z" fill="#f37536" fill-opacity="1"></path></g><g><title>Vector</title><path d="M14.57287,8.41047v0l-0.62027,-0.31014c-0.2097,-0.10676 -0.29388,-0.36295 -0.18865,-0.57341c0.10522,-0.21046 0.36065,-0.29674 0.57208,-0.19304l0.23686,0.11843v0v-0.59236c0,-0.23667 0.1919,-0.42857 0.42857,-0.42857c0.23667,0 0.42857,0.1919 0.42857,0.42857v1.97966c0.22385,0.10886 0.46951,0.16473 0.71843,0.1632c0.24031,0.00057 0.47794,-0.05147 0.69605,-0.15268c-0.35128,-0.40638 -0.54852,-0.92317 -0.55695,-1.46038c-0.00861,-0.53706 0.17201,-1.05996 0.51027,-1.47722c-0.17295,-0.29082 -0.26977,-0.62067 -0.28144,-0.95892c-0.1058,-0.05185 -0.18559,-0.14503 -0.22041,-0.25753c-0.15153,-0.49229 -0.6838,-0.83608 -1.29453,-0.83608c-0.61072,0 -1.14298,0.34381 -1.29453,0.83569c-0.04343,0.14082 -0.15612,0.24949 -0.29847,0.28775c-0.47985,0.12896 -0.80224,0.4944 -0.80224,0.90936c0.0023,0.20261 0.07768,0.39777 0.21237,0.54931c0.14828,0.17372 0.13431,0.43316 -0.03176,0.59005c-0.2227,0.20052 -0.35185,0.48444 -0.35682,0.78407c0,0.65432 0.63904,1.18663 1.42442,1.18663c0.24892,0.00153 0.4946,-0.05434 0.71844,-0.1632z" fill="#f37536" fill-opacity="1"></path></g><g><title>Vector</title><path d="M19.09367,8.99712c0.36467,0.0023 0.72436,-0.08648 1.04616,-0.25829v-0.79822v0l-1.09494,-0.72989c-0.09509,-0.06275 -0.16148,-0.16091 -0.18406,-0.27264c-0.02277,-0.11173 0.00019,-0.22806 0.06333,-0.32296c0.06333,-0.0949 0.16186,-0.16052 0.27379,-0.18272c0.11193,-0.022 0.22786,0.00153 0.32257,0.06524l0.61935,0.41307v0v-0.91356c0,-0.23667 0.1919,-0.42857 0.42857,-0.42857c0.23667,0 0.42857,0.1919 0.42857,0.42857v0.91356v0l0.61935,-0.41288v0v-0.00019c0.19687,-0.12972 0.46167,-0.07596 0.59255,0.12015c0.13068,0.19611 0.07845,0.46129 -0.1169,0.59309l-1.09493,0.7299v0v0.79822c0.32181,0.17162 0.6815,0.26039 1.04615,0.2581c1.07736,0 1.95384,-0.7393 1.95384,-1.64826c-0.00631,-0.41882 -0.18654,-0.8162 -0.49724,-1.09705c-0.16607,-0.15689 -0.17985,-0.41652 -0.03138,-0.59025c0.1921,-0.21678 0.29924,-0.49572 0.30173,-0.78519c0,-0.58928 -0.45076,-1.10684 -1.12193,-1.28763c-0.14215,-0.03826 -0.25465,-0.14694 -0.29808,-0.28756c-0.21065,-0.68361 -0.94344,-1.16116 -1.78163,-1.16116c-0.83819,0 -1.57097,0.47755 -1.78163,1.16116c-0.04344,0.14062 -0.15594,0.24929 -0.29809,0.28756c-0.67097,0.18061 -1.12193,0.69796 -1.12193,1.28763c0.00249,0.28948 0.10963,0.5684 0.30172,0.78519c0.14847,0.17372 0.1347,0.43335 -0.03138,0.59025c-0.31072,0.28087 -0.49092,0.67827 -0.49724,1.09705c0,0.90901 0.87649,1.64826 1.95384,1.64826z" fill="#f37536" fill-opacity="1"></path></g><g><title>Vector</title><path d="M12.0027,24.0015c0.5727,0 1.1446,-0.0404 1.7114,-0.1209c1.5372,-1.83865 2.1927,-4.05576 1.754,-5.95935c-0.2767,-1.20113 -0.9766,-2.12141 -1.9198,-2.52588c-2.4113,-1.03337 -3.2715,-2.36003 -3.55234,-2.96537h-9.98596c0.11097,3.10638 1.4231,6.04849 3.6601,8.20702c2.2368,2.15838 5.22416,3.36448 8.3324,3.36448z" fill="#f37536" fill-opacity="1"></path></g><g><title>Vector</title><path d="M20.56418,13.25874c0.44674,0.88624 0.44062,1.95575 -0.01799,3.17868c-0.56194,1.4996 -0.75786,2.68525 -0.08801,4.07755c0.00957,-0.00957 0.01952,-0.01875 0.02908,-0.02851l0.00019,0.00019c2.1528,-2.14075 3.40732,-5.02237 3.50719,-8.05665h-4.04464c0.24987,0.23992 0.45746,0.52002 0.61416,0.82883z" fill="#f37536" fill-opacity="1"></path></g><g><title>Vector</title><path d="M0.85709,2.99991c0.15192,0.00019 0.30096,-0.04037 0.43182,-0.11748c0.16646,-0.09853 0.37845,-0.07347 0.51718,0.06142c0.3197,0.31072 0.74806,0.48463 1.19388,0.48463c0.44581,0 0.87418,-0.17392 1.19387,-0.48463c0.13871,-0.13489 0.35071,-0.15995 0.51718,-0.06142c0.13087,0.07711 0.27991,0.11767 0.43182,0.11748c0.30632,0 0.58928,-0.16339 0.74234,-0.42858c0.15306,-0.26518 0.15306,-0.59196 0,-0.85714c-0.15306,-0.26517 -0.43603,-0.42857 -0.74234,-0.42857c-0.03807,-0.00019 -0.07595,0.0023 -0.11364,0.00746c-0.19152,0.02717 -0.37749,-0.07748 -0.45364,-0.25503c-0.17755,-0.41327 -0.51007,-0.74023 -0.9262,-0.91034c-0.41614,-0.17028 -0.88261,-0.17028 -1.29874,0c-0.41614,0.17009 -0.74866,0.49704 -0.92621,0.91034c-0.07615,0.17755 -0.26212,0.2822 -0.45363,0.25503c-0.03769,-0.00516 -0.07557,-0.00765 -0.11365,-0.00746c-0.30631,0 -0.58927,0.16339 -0.74233,0.42857c-0.15306,0.26518 -0.15306,0.59197 0,0.85714c0.15306,0.26518 0.43603,0.42858 0.74233,0.42858z" fill="#f37536" fill-opacity="1"></path></g><g><title>Vector</title><path d="M11.99571,1.71429c-0.23667,0 -0.42857,-0.19191 -0.42857,-0.42858c-0.00593,-0.0882 -0.02985,-0.17429 -0.07022,-0.25293c-0.04764,-0.08686 -0.128,-0.17564 -0.35835,-0.17564c-0.23667,0 -0.42857,-0.1919 -0.42857,-0.42857c0,-0.23667 0.1919,-0.42857 0.42857,-0.42857c0.37558,0 0.65569,0.12188 0.85714,0.30115c0.20147,-0.17927 0.48157,-0.30115 0.85715,-0.30115c0.23667,0 0.42857,0.1919 0.42857,0.42857c0,0.23667 -0.1919,0.42857 -0.42857,0.42857c-0.23036,0 -0.31072,0.08878 -0.35836,0.17564c-0.04094,0.07997 -0.06505,0.1676 -0.07021,0.25714c-0.0023,0.23514 -0.19363,0.42437 -0.42858,0.42437z" fill="#f37536" fill-opacity="1"></path></g><g><title>Vector</title><path d="M8.99571,5.14429c-0.23667,0 -0.42857,-0.19191 -0.42857,-0.42858c-0.00593,-0.0882 -0.02985,-0.17429 -0.07022,-0.25293c-0.04764,-0.08686 -0.128,-0.17564 -0.35835,-0.17564c-0.23667,0 -0.42857,-0.1919 -0.42857,-0.42857c0,-0.23667 0.1919,-0.42857 0.42857,-0.42857c0.37558,0 0.65569,0.12188 0.85714,0.30115c0.20147,-0.17927 0.48157,-0.30115 0.85715,-0.30115c0.23667,0 0.42857,0.1919 0.42857,0.42857c0,0.23667 -0.1919,0.42857 -0.42857,0.42857c-0.23036,0 -0.31052,0.08878 -0.35836,0.17564c-0.04094,0.07997 -0.06505,0.1676 -0.07021,0.25714c-0.0023,0.23514 -0.19363,0.42437 -0.42858,0.42437z" fill="#f37536" fill-opacity="1"></path></g><g><title>Vector</title><path d="M15.42714,11.57015v0v-1.81738c-0.14809,-0.04362 -0.29158,-0.1014 -0.42857,-0.17277c-0.13699,0.07136 -0.28049,0.12914 -0.42857,0.17277v1.81738v0z" fill="#f37536" fill-opacity="1"></path></g><g><title>Vector</title><path d="M20.56857,9.49c-0.13756,0.07519 -0.28087,0.13929 -0.42857,0.19152v1.89394v0h0.85714v0v-1.89394c-0.1477,-0.05223 -0.29101,-0.11633 -0.42857,-0.19152z" fill="#f37536" fill-opacity="1"></path></g></g></g></svg>