<?xml version="1.0" encoding="UTF-8"?>
<svg id="SVGDoc" width="136" height="125" xmlns="http://www.w3.org/2000/svg" version="1.1" xmlns:xlink="http://www.w3.org/1999/xlink" xmlns:avocode="https://avocode.com/" viewBox="0 0 136 125"><defs></defs><desc>Generated with Avocode.</desc><g><g><title>noun-contact-1995626</title><g><title>Path 690</title><path d="M127.2291,41.23824c0,1.99069 -1.70605,3.69685 -3.69684,3.69685l-30.42999,0.00099c-1.1377,0 -2.13251,0.42651 -2.9866,1.27953l-13.50739,13.3667v-10.66471c0,-2.27537 -1.84885,-4.12318 -4.12317,-4.12318h-3.83957c-1.99069,0 -3.69684,-1.70605 -3.69684,-3.69685l-0.00098,-29.00802c0,-1.9907 1.70605,-3.69685 3.69684,-3.69685h55.17212c1.99069,0 3.69684,1.70605 3.69684,3.69685v29.15022zM123.67422,0.00136h-55.17212c-6.68323,0 -11.94424,5.40371 -11.94424,11.94422v29.15022c0,6.54153 5.26102,11.80228 11.80228,11.94422v7.25175c0,3.27026 1.99072,6.11393 4.97739,7.39445c0.99585,0.42651 1.99069,0.56836 3.12833,0.56836c2.13254,0 4.12317,-0.85303 5.68732,-2.41721l12.94012,-12.94011h28.86581c6.6832,0 11.94424,-5.40371 11.94424,-11.94422v-28.86582c-0.2847,-6.68322 -5.68835,-12.08718 -12.22888,-12.08718z" fill="#42aeea" fill-opacity="1"></path></g><g><title>Path 691</title><path d="M84.0015,26.59204c0,3.21973 -2.60956,5.83029 -5.82928,5.83029c-3.22076,0 -5.83032,-2.61057 -5.83032,-5.83029c0,-3.21973 2.60956,-5.82928 5.83032,-5.82928c3.21973,0 5.82928,2.60956 5.82928,5.82928" fill="#42aeea" fill-opacity="1"></path></g><g><title>Path 692</title><path d="M101.91821,26.59204c0,3.21973 -2.6106,5.83029 -5.83032,5.83029c-3.21973,0 -5.83029,-2.61057 -5.83029,-5.83029c0,-3.21973 2.61057,-5.82928 5.83029,-5.82928c3.21973,0 5.83032,2.60956 5.83032,5.82928" fill="#42aeea" fill-opacity="1"></path></g><g><title>Path 693</title><path d="M119.69269,26.59204c0,3.21973 -2.61053,5.83029 -5.83026,5.83029c-3.21976,0 -5.83032,-2.61057 -5.83032,-5.83029c0,-3.21973 2.61057,-5.82928 5.83032,-5.82928c3.21973,0 5.83026,2.60956 5.83026,5.82928" fill="#42aeea" fill-opacity="1"></path></g><g><title>Path 694</title><path d="M83.57488,103.66236c-1.27954,3.12833 -5.83031,8.53227 -7.25175,9.95348c-1.99071,1.99071 -4.5508,2.84367 -7.53639,2.84367c-9.52715,0 -23.60483,-9.10056 -37.2554,-22.75189c-17.77452,-17.77452 -28.01264,-36.54442 -19.90695,-44.6496c1.42236,-1.42236 6.96786,-5.97223 9.95348,-7.39445c0.71118,-0.28467 1.42236,-0.42651 2.13254,-0.42651c1.70605,0 3.27026,0.71118 4.26614,2.13254l8.95861,11.23299c1.84886,2.27538 1.56421,5.68735 -0.71118,7.53641c-2.27537,1.99069 -3.83955,3.41296 -4.26614,3.83954c-3.41296,3.41296 1.56421,10.52277 9.10056,18.05917c5.8303,5.83029 11.51763,10.23813 15.35719,10.23813c1.1377,0 1.99071,-0.28467 2.70198,-1.1377c0.42651,-0.42651 1.84885,-1.99071 3.83954,-4.26614c1.1377,-1.27954 2.702,-1.99069 4.1232,-1.99069c1.1377,0 2.41721,0.4265 3.41296,1.1377l11.23297,8.9586c2.13255,1.70802 2.84369,4.40987 1.84787,6.68425zM87.12978,90.58031l-11.233,-8.9586c-2.41721,-1.99071 -5.54565,-2.98663 -8.53227,-2.98663c-3.98149,0 -7.82103,1.70605 -10.52278,4.83441c-0.56834,0.71118 -0.99585,1.1377 -1.42236,1.70605c-1.56419,-0.99585 -4.12317,-2.84367 -8.24738,-6.96786c-4.12318,-4.12318 -5.97224,-6.68323 -6.96786,-8.24738c0.42651,-0.42651 0.99586,-0.85303 1.70605,-1.42238c5.68735,-4.83441 6.54153,-13.22374 1.84885,-19.05403l-9.09954,-11.23096c-2.70198,-3.27026 -6.54153,-5.261 -10.80666,-5.261c-1.84885,0 -3.69685,0.42651 -5.54565,1.1377c-4.69247,1.99069 -11.23299,7.67809 -12.51351,9.10056c-8.67397,8.67397 -4.69247,21.47136 -1.42237,28.15483c4.12318,8.67398 11.51763,18.48576 21.32942,28.29704c9.3852,9.38521 27.44386,25.16899 43.08543,25.16899c5.26102,0 9.95349,-1.84888 13.3667,-5.26102c1.42236,-1.42236 7.1098,-7.82104 9.10056,-12.51352c2.4182,-5.8313 0.71118,-12.65646 -4.12318,-16.49603z" fill="#42aeea" fill-opacity="1"></path></g></g></g></svg>