<?xml version="1.0" encoding="UTF-8"?>
<svg id="SVGDoc" width="18" height="22" xmlns="http://www.w3.org/2000/svg" version="1.1" xmlns:xlink="http://www.w3.org/1999/xlink" xmlns:avocode="https://avocode.com/" viewBox="0 0 18 22"><defs></defs><desc>Generated with Avocode.</desc><g><g><title>Group 2</title><g><title>Rectangle 32</title></g><g><title>Group</title><g><title>Vector</title><path d="M4.89998,19.0963c-4.45863,-1.56327 -4.50998,-7.83208 -4.50998,-8.0982c0,-0.17772 0.13529,-0.32639 0.3124,-0.34284c2.70851,-0.25323 4.04651,-2.05506 4.05973,-2.07336c0.06488,-0.08917 0.1685,-0.1419 0.27873,-0.1419c0.11039,0 0.21401,0.05289 0.27873,0.14221c1.02365,1.20163 2.48279,1.94744 4.05619,2.07304c0.17711,0.0166 0.3124,0.16512 0.3124,0.34284c0,0.26606 -0.05156,6.53497 -4.50998,8.09821c-0.09055,0.0292 -0.18802,0.0292 -0.27858,0zM5.0403,9.31431c-1.05294,1.09217 -2.44596,1.79369 -3.95032,1.98909c0.06943,1.23543 0.55659,5.8457 3.94874,7.11112c3.3975,-1.26771 3.88088,-5.87636 3.94914,-7.11073c-1.50354,-0.1951 -2.89597,-0.89676 -3.94756,-1.98941z" fill="#f37536" fill-opacity="1"></path></g><g><title>Vector</title><path d="M4.12023,15.16819c0.10085,0.14851 0.2981,0.19587 0.45553,0.10946l1.83811,-1.03313c0.16573,-0.09317 0.22462,-0.30302 0.1313,-0.46891c-0.09317,-0.16573 -0.30303,-0.22461 -0.46891,-0.13129l-1.55954,0.87661v0l-0.39559,-0.59497c-0.10531,-0.1585 -0.31901,-0.2014 -0.47737,-0.09609c-0.1585,0.10531 -0.2014,0.31901 -0.09609,0.47737z" fill="#f37536" fill-opacity="1"></path></g><g><title>Vector</title><path d="M6.24224,3.40606v0l-0.16712,-0.35606v0l-0.16712,0.35622v0v-0.00015c-0.04889,0.10408 -0.14621,0.1768 -0.25967,0.19418l-0.40833,0.06242v0l0.30671,0.3144c0.07641,0.07825 0.111,0.18803 0.09347,0.29595l-0.06872,0.42156v0l0.33715,-0.18633c0.10362,-0.05735 0.22938,-0.05735 0.333,0l0.33715,0.18633v0l-0.06872,-0.42156c-0.01753,-0.10792 0.01706,-0.21785 0.09347,-0.29595l0.30672,-0.3144v0l-0.40834,-0.06242c-0.11346,-0.01737 -0.21078,-0.09009 -0.25967,-0.19417z" fill="#f37536" fill-opacity="1"></path></g><g><title>Vector</title><path d="M17.6126,17.7088c0,0.0594 -0.0154,0.1178 -0.0446,0.1694l-1.3775,2.4376c-0.061,0.1081 -0.1756,0.175 -0.2998,0.175c-0.1242,0 -0.2387,-0.0669 -0.2998,-0.175l-1.3775,-2.4376c-0.0292,-0.0516 -0.0446,-0.11 -0.0446,-0.1694v-8.92707c0,-0.19017 0.1542,-0.34438 0.3444,-0.34438c0.1902,0 0.3444,0.15421 0.3444,0.34438v8.60947h0.6887v-3.7473c0,-0.1902 0.1542,-0.3444 0.3444,-0.3444c0.1902,0 0.3444,0.1542 0.3444,0.3444v3.7473h0.6888v-9.38324l-1.725,0.00246c-0.2566,-0.22907 -0.6105,-0.31501 -0.9435,-0.22922c-0.3332,0.0858 -0.6015,0.33209 -0.7154,0.65648h-0.0001l0.0001,-0.00031h-7.4244c-0.08332,-0.08271 -0.16158,-0.17019 -0.2346,-0.26197c-0.19356,-0.26706 -0.50304,-0.42556 -0.83281,-0.42679c-0.32978,-0.00126 -0.64031,0.15511 -0.83587,0.42077c-0.47552,0.56698 -1.07509,1.01715 -1.75232,1.31541v-8.45164c0.00031,-0.27397 0.10931,-0.53657 0.30287,-0.73028c0.19372,-0.19356 0.45631,-0.30256 0.73028,-0.30287h9.48315c0.0954,0 0.1864,0.03951 0.2514,0.109l4.292,4.58201c0.0598,0.06395 0.093,0.14805 0.093,0.23553zM7.87205,3.66281c0.0901,-0.0924 0.121,-0.22738 0.0801,-0.34976c-0.04089,-0.12238 -0.14697,-0.21155 -0.27458,-0.23107l0.00015,0.00015l-0.88924,-0.13591l-0.40082,-0.85402c-0.05673,-0.12099 -0.17818,-0.19817 -0.31178,-0.19817c-0.13361,0 -0.25506,0.07718 -0.31179,0.19817v-0.00015l-0.40082,0.85402l-0.88924,0.13591c-0.12745,0.01952 -0.23353,0.10869 -0.27443,0.23107c-0.04105,0.12238 -0.00999,0.25736 0.0801,0.34976l0.00015,0.00015l0.65342,0.66971l-0.15497,0.94966c-0.02137,0.13021 0.03367,0.26105 0.14144,0.337c0.10777,0.07594 0.24952,0.08363 0.36498,0.01983l0.79116,-0.43723l0.79117,0.43723c0.11561,0.06257 0.25674,0.05503 0.36498,-0.01983c0.10777,-0.07595 0.16266,-0.20679 0.14144,-0.337l0.00015,-0.00016l-0.15497,-0.94966l0.65342,-0.6697zM16.5367,4.64906l-3.4008,-3.6309v3.30344c0.0052,0.18572 0.1597,0.33208 0.3454,0.32747zM16.663,18.0796h-1.5442l0.7721,1.3663z" fill="#f37536" fill-opacity="1"></path></g><g><title>Vector</title><path d="M3.49281,22.03722v0h13.08639c0.274,-0.00031 0.5366,-0.10915 0.7303,-0.30287c0.1937,-0.19371 0.3027,-0.45631 0.303,-0.73028v-1.80922v0l-0.8391,1.48496c-0.1874,0.30825 -0.5221,0.49642 -0.8828,0.49642c-0.3607,0 -0.6954,-0.18818 -0.8828,-0.49642l-0.6924,-1.22548v0h-8.23128c-0.21892,0.10854 -0.44399,0.20417 -0.67415,0.28626c-0.23784,0.08087 -0.49583,0.08087 -0.73367,0.00016c-0.82804,-0.28919 -1.58382,-0.75334 -2.2163,-1.36075v2.62405c0.00031,0.27396 0.10931,0.53656 0.30287,0.73028c0.19371,0.19356 0.45631,0.30256 0.73028,0.30287z" fill="#f37536" fill-opacity="1"></path></g><g><title>Vector</title><path d="M9.56,15.32314v0h3.91671v0v-1.03314v0h-3.58217c-0.09255,0.33731 -0.20309,0.68384 -0.33454,1.03314z" fill="#f37536" fill-opacity="1"></path></g><g><title>Vector</title><path d="M10.06,13.60314v0h3.41305v0v-1.03314v0h-3.22795c-0.04443,0.31486 -0.10485,0.66353 -0.1851,1.03314z" fill="#f37536" fill-opacity="1"></path></g><g><title>Vector</title><path d="M8.71008,17.04314v0h4.76502v0v-1.03314v0h-4.20457c-0.16358,0.35652 -0.35084,0.70167 -0.56053,1.03314z" fill="#f37536" fill-opacity="1"></path></g><g><title>Vector</title><path d="M10.33004,11.88314v0h3.14781v0v-1.03314v0h-3.11326c0.00815,0.04874 0.01276,0.09809 0.01384,0.14744c0,0.05842 -0.00307,0.38804 -0.04843,0.8857z" fill="#f37536" fill-opacity="1"></path></g><g><title>Vector</title><path d="M9.43858,9.97081c0.18419,0.01722 0.36022,0.08363 0.5098,0.19233h3.52664v0v-1.03314v0h-6.50502c0.74319,0.47489 1.59012,0.76334 2.46862,0.8408z" fill="#f37536" fill-opacity="1"></path></g><g><title>Vector</title><path d="M7.18018,18.77006v0h6.74628v0l0.14297,0.25291v0l-0.43864,-0.77625v0h-0.00015c-0.09839,-0.16174 -0.15036,-0.34745 -0.15036,-0.53672c0,0.00907 0.00154,0.01783 0.00185,0.0269h-5.26053c-0.30748,0.3822 -0.6568,0.7289 -1.0416,1.03314z" fill="#f37536" fill-opacity="1"></path></g></g></g></g></svg>