<?xml version="1.0" encoding="UTF-8"?>
<svg id="SVGDoc" width="19" height="22" xmlns="http://www.w3.org/2000/svg" version="1.1" xmlns:xlink="http://www.w3.org/1999/xlink" xmlns:avocode="https://avocode.com/" viewBox="0 0 19 22"><defs></defs><desc>Generated with Avocode.</desc><g><g><title>noun-iso-3684838</title><g><title>Background</title></g><g><title>Group</title><g><title>Vector</title><path d="M18.4643,11.7857c0.1042,0 0.2041,0.0414 0.2778,0.1151c0.0737,0.0736 0.115,0.1736 0.115,0.2778v6.2857c0,0.1042 -0.0413,0.2041 -0.115,0.2778c-0.0737,0.0737 -0.1736,0.115 -0.2778,0.115h-18.07144c-0.10418,0 -0.20415,-0.0413 -0.27781,-0.115c-0.07366,-0.0737 -0.11505,-0.1736 -0.11505,-0.2778v-6.2857c0,-0.217 0.17591,-0.3929 0.39286,-0.3929zM5.89286,13.75c0,-0.2169 -0.17591,-0.3929 -0.39286,-0.3929c-0.21695,0 -0.39286,0.176 -0.39286,0.3929v3.1429c0,0.2169 0.17591,0.3928 0.39286,0.3928c0.21695,0 0.39286,-0.1759 0.39286,-0.3928zM7.46429,14.9286v-0.7857h1.96428c0.21695,0 0.39286,-0.176 0.39286,-0.3929c0,-0.2169 -0.17591,-0.3929 -0.39286,-0.3929h-1.96428c-0.20835,0.0002 -0.40794,0.0832 -0.55526,0.2305c-0.14732,0.1473 -0.23027,0.3469 -0.23045,0.5552v0.7858c0.00018,0.2083 0.08314,0.4079 0.23045,0.5552c0.14732,0.1473 0.3469,0.2303 0.55526,0.2305h1.57143v0.7857h-1.96429c-0.21695,0 -0.39286,0.1759 -0.39286,0.3928c0,0.217 0.17591,0.3929 0.39286,0.3929h1.96429c0.20834,-0.0002 0.40793,-0.0831 0.55525,-0.2305c0.14732,-0.1473 0.23028,-0.3469 0.23045,-0.5552v-0.7857c-0.00017,-0.2084 -0.08314,-0.408 -0.23045,-0.5553c-0.14732,-0.1473 -0.3469,-0.2303 -0.55525,-0.2304zM13.75,14.5357c-0.0003,-0.3125 -0.1247,-0.6121 -0.3455,-0.8331c-0.221,-0.2208 -0.5206,-0.3451 -0.8331,-0.3455h-0.7857c-0.3125,0.0004 -0.6121,0.1247 -0.8331,0.3455c-0.2208,0.221 -0.3451,0.5206 -0.3455,0.8331v1.5714c0.0004,0.3126 0.1247,0.6121 0.3455,0.8331c0.221,0.2208 0.5206,0.3452 0.8331,0.3455h0.7857c0.3126,-0.0003 0.6121,-0.1247 0.8331,-0.3455c0.2208,-0.221 0.3452,-0.5205 0.3455,-0.8331zM12.9643,16.1071c-0.0002,0.217 -0.1759,0.3927 -0.3929,0.3929h-0.7857c-0.2169,-0.0002 -0.3927,-0.1759 -0.3928,-0.3929v-1.5714c0.0001,-0.2169 0.1759,-0.3927 0.3928,-0.3928h0.7857c0.217,0.0001 0.3927,0.1759 0.3929,0.3928zM17.2857,11h-15.71427v-10.60714c0,-0.21695 0.17591,-0.39286 0.39286,-0.39286h10.60711v4.32143c0,0.21695 0.1759,0.39286 0.3929,0.39286h4.3214zM14.5357,9.42857c0.217,0 0.3929,-0.17591 0.3929,-0.39286c0,-0.21694 -0.1759,-0.39285 -0.3929,-0.39285h-10.21427c-0.21695,0 -0.39286,0.17591 -0.39286,0.39285c0,0.21695 0.17591,0.39286 0.39286,0.39286zM14.5357,7.07143c0.217,0 0.3929,-0.17591 0.3929,-0.39286c0,-0.21695 -0.1759,-0.39286 -0.3929,-0.39286h-10.21427c-0.21695,0 -0.39286,0.17591 -0.39286,0.39286c0,0.21695 0.17591,0.39286 0.39286,0.39286zM17.0556,3.92857h-3.6985v-3.69847zM1.5712,19.6429h15.7143v1.9642c0,0.1042 -0.0414,0.2042 -0.1151,0.2778c-0.0736,0.0737 -0.1736,0.1151 -0.2778,0.1151h-14.92854c-0.21695,0 -0.39286,-0.1759 -0.39286,-0.3929z" fill="#f37536" fill-opacity="1"></path></g></g></g></g></svg>