<?xml version="1.0" encoding="UTF-8"?>
<svg id="SVGDoc" width="24" height="24" xmlns="http://www.w3.org/2000/svg" version="1.1" xmlns:xlink="http://www.w3.org/1999/xlink" xmlns:avocode="https://avocode.com/" viewBox="0 0 24 24"><defs></defs><desc>Generated with Avocode.</desc><g><g><title>Group</title><g><title>Vector</title><path d="M13.5609,1.07259l1.8575,-0.39245l1.0378,1.58732l1.8574,0.34885l0.3489,1.86624l1.5871,1.03775l-0.3837,1.84896l1.0641,1.56101l-1.0641,1.56983l0.3837,1.8489l-1.5871,1.0378l-0.3489,1.8662l-1.8574,0.3489l-1.0378,1.5873l-1.8575,-0.3925l-1.561,1.0641l-1.561,-1.0641l-1.85747,0.3925l-1.03775,-1.5873l-1.85748,-0.3489l-0.34884,-1.8662l-1.58732,-1.0378l0.38368,-1.8489l-1.06386,-1.56983l1.06386,-1.56101l-0.38368,-1.84896l1.58732,-1.03775l0.34884,-1.86624l1.85748,-0.34885l1.03775,-1.58732l1.85747,0.39245l1.561,-1.07259zM5.58125,8.93899c0,3.54171 2.87694,6.41871 6.41865,6.41871c3.5417,0 6.4187,-2.8772 6.4187,-6.41871c0,-3.54173 -2.877,-6.41867 -6.4187,-6.41867c-3.54171,0 -6.41865,2.87694 -6.41865,6.41867zM17.8604,8.93894c0,3.23996 -2.6205,5.86056 -5.8605,5.86056c-3.23991,0 -5.8605,-2.6206 -5.8605,-5.86056c0,-3.23993 2.62049,-5.86052 5.8605,-5.86052c3.24,0 5.8605,2.62049 5.8605,5.86052zM15.0698,6.10496l-3.9418,3.94184l-1.64821,-1.43901l-0.62801,-0.54932l-1.0989,1.26455l0.62802,0.54932l2.2326,1.95346l0.5844,0.5145l4.4651,-4.46507l0.5929,-0.58441l-1.1861,-1.18611zM4.69181,13.6307l-0.00003,0.00004l-0.00021,-0.00014zM4.69178,13.63074l0.1306,0.08716l0.314,1.6221c0.04146,0.2188 0.22601,0.4034 0.44481,0.4448l1.62216,0.314l0.90694,1.3866c0.12382,0.1855 0.36657,0.2834 0.58441,0.2356l0.42728,-0.0873l-3.8197,6.3664l-1.11619,-3.9069l-4.18609,0.8372zM19.3082,13.6307l-0.00019,0.00012l-0.00001,-0.00002zM19.30801,13.63082l4.69199,7.29968l-4.1861,-0.8373l-1.1162,3.907l-3.8199,-6.3664l0.4273,0.0872c0.2179,0.0477 0.4606,-0.05 0.5844,-0.2355l0.9069,-1.3866l1.6222,-0.314c0.2188,-0.0415 0.4034,-0.226 0.4448,-0.4448l0.314,-1.6222z" fill="#ffffff" fill-opacity="1"></path></g></g></g></svg>