<?xml version="1.0" encoding="UTF-8"?>
<svg id="SVGDoc" width="16" height="22" xmlns="http://www.w3.org/2000/svg" version="1.1" xmlns:xlink="http://www.w3.org/1999/xlink" xmlns:avocode="https://avocode.com/" viewBox="0 0 16 22"><defs></defs><desc>Generated with Avocode.</desc><g><g><title>noun-license-2381932</title><g><title>Background</title></g><g><title>Group</title><g><title>Vector</title><path d="M0,0h11.6847l0.0338,0.0343l-0.0018,3.99369l3.9723,0.00175l0.0595,0.05955v17.78881h-15.74822v-21.87804zM13.8726,1.96602l1.8427,1.83605l-3.7637,-0.00175l0.0013,-3.76373zM7.8742,1.68586c-1.3329,0.00003 -2.41949,1.08681 -2.41949,2.41955c0,0.80597 0.39876,1.51986 1.00767,1.95976v2.46895c-0.00016,0.10481 0.05733,0.20121 0.1496,0.25092c0.09243,0.04971 0.20456,0.04479 0.29206,-0.01318h-0.00016l0.97035,-0.6394l0.97034,0.6394c0.08751,0.05797 0.19964,0.06289 0.29191,0.01318c0.09227,-0.04971 0.14976,-0.14611 0.1496,-0.25092v-2.46895c0.60889,-0.44007 1.00762,-1.15379 1.00762,-1.95976c0,-1.33291 -1.08671,-2.41952 -2.41945,-2.41955zM7.87421,2.25506c1.02531,0 1.85036,0.82521 1.85036,1.85036c0,0.65701 -0.33957,1.23065 -0.85286,1.5586c-0.00714,0.0035 -0.01413,0.00747 -0.02096,0.0116c-0.14644,0.09132 -0.30398,0.16135 -0.4682,0.20852c-0.00079,0.00016 -0.00143,0.00032 -0.00222,0.00048c-0.07401,0.02096 -0.14945,0.03621 -0.22552,0.04796c-0.0135,0.00206 -0.02684,0.00445 -0.04049,0.00619c-0.07925,0.01048 -0.15913,0.01668 -0.23965,0.01684h-0.00048c-0.08274,-0.00016 -0.16485,-0.00667 -0.24632,-0.01779c-0.00778,-0.00095 -0.01541,-0.00238 -0.02319,-0.00349c-0.24983,-0.03748 -0.49058,-0.12515 -0.70657,-0.26014c-0.01095,-0.00667 -0.02239,-0.01255 -0.03414,-0.01779l-0.00016,0.00016c-0.50614,-0.3294 -0.83996,-0.89908 -0.83996,-1.55068c0,-1.02531 0.8252,-1.85035 1.85035,-1.85035v-0.00048zM7.03152,6.36948v0.00001c-0.00001,0 -0.00003,-0.00001 -0.00004,-0.00001zM7.03152,6.36949c0.1774,0.06638 0.36399,0.11371 0.55805,0.13657v0.58603c-0.00127,0.07639 0.02811,0.15007 0.08163,0.20455c0.05352,0.05447 0.12658,0.08512 0.20297,0.08512c0.07639,0 0.1496,-0.03065 0.20312,-0.08512c0.05352,-0.05447 0.0829,-0.12816 0.08147,-0.20455v-0.58603c0.19409,-0.02302 0.3807,-0.07019 0.55809,-0.13658v1.63594l-0.68607,-0.45182c-0.09497,-0.06241 -0.21806,-0.06241 -0.31303,0h-0.00016l-0.68607,0.45182zM2.80529,10.8256c-0.07608,-0.0011 -0.14945,0.0286 -0.2036,0.0819c-0.05416,0.0536 -0.08465,0.1265 -0.08465,0.2027c0,0.0761 0.03049,0.149 0.08465,0.2025c0.05415,0.0533 0.12752,0.083 0.2036,0.0821l10.13771,0.004c0.076,0.0009 0.1494,-0.0286 0.2036,-0.0822c0.0541,-0.0535 0.0846,-0.1264 0.0846,-0.2024c0,-0.0761 -0.0305,-0.1492 -0.0846,-0.2025c-0.0542,-0.0536 -0.1276,-0.0831 -0.2036,-0.0821v-0.0002l-10.13771,-0.004zM2.80529,12.6469c-0.07608,-0.001 -0.14945,0.0286 -0.2036,0.0821c-0.05416,0.0535 -0.08465,0.1264 -0.08465,0.2025c0,0.0762 0.03049,0.1491 0.08465,0.2026c0.05415,0.0534 0.12752,0.0829 0.2036,0.082v0.0001l10.13771,0.004c0.076,0.001 0.1494,-0.0287 0.2036,-0.0821c0.0541,-0.0535 0.0846,-0.1264 0.0846,-0.2025c0,-0.0762 -0.0305,-0.1491 -0.0846,-0.2026c-0.0542,-0.0534 -0.1276,-0.0831 -0.2036,-0.082v-0.0001zM2.80529,14.4683c-0.07608,-0.0009 -0.14945,0.0286 -0.2036,0.0821c-0.05416,0.0536 -0.08465,0.1265 -0.08465,0.2025c0,0.0761 0.03049,0.1492 0.08465,0.2025c0.05415,0.0535 0.12752,0.0831 0.2036,0.0821l10.13771,0.004c0.076,0.001 0.1494,-0.0286 0.2036,-0.082c0.0541,-0.0535 0.0846,-0.1264 0.0846,-0.2026c0,-0.0761 -0.0305,-0.149 -0.0846,-0.2025c-0.0542,-0.0535 -0.1276,-0.083 -0.2036,-0.0821zM6.48865,16.8361c-0.20156,0.0116 -0.40071,0.0695 -0.58525,0.1565c-0.36892,0.1743 -0.70672,0.4595 -1.01609,0.7792c-0.61858,0.6396 -1.11963,1.4263 -1.34292,1.7992c-0.04161,0.0648 -0.05495,0.1437 -0.03732,0.2185c0.01763,0.075 0.0648,0.1395 0.13086,0.179c0.06607,0.0396 0.14532,0.0507 0.21964,0.0308c0.07433,-0.0198 0.13754,-0.0691 0.17502,-0.1362l0.00016,0.0004c0.21043,-0.3513 0.70181,-1.1144 1.26384,-1.6955c0.2811,-0.2904 0.5811,-0.5333 0.85029,-0.6603c0.26866,-0.12693 0.47921,-0.14545 0.68524,-0.04262c-0.0563,-0.02803 0.02872,0.03925 0.0804,0.18842c0.05193,0.1499 0.09926,0.3598 0.13515,0.5771c0.07194,0.4343 0.10275,0.9156 0.10275,1.0499c0,-0.0397 -0.05193,0.1348 -0.11435,0.2824c-0.03128,0.0738 -0.0694,0.1397 -0.07162,0.2712c-0.00111,0.0658 0.01604,0.1706 0.09608,0.253c0.08004,0.0825 0.18724,0.105 0.26014,0.105c0.00016,0 0.09878,-0.0178 0.09878,-0.0178c0,0 0.03494,-0.0154 0.04574,-0.0217c0.02144,-0.0127 0.03129,-0.0212 0.03907,-0.0277c0.01556,-0.013 0.02112,-0.019 0.0262,-0.0244c0.01017,-0.0108 0.01461,-0.0164 0.01954,-0.0223c0.00969,-0.0119 0.01842,-0.0228 0.0289,-0.0365c0.02096,-0.0271 0.04828,-0.0632 0.08179,-0.1067c0.06702,-0.087 0.15834,-0.2031 0.26014,-0.3229c0.14771,-0.1736 0.28794,-0.2808 0.41229,-0.3789c0.00127,0.0454 0.00334,0.0908 0.00318,0.1329c-0.00016,0.0367 -0.00048,0.0686 0.00175,0.1063c0.00111,0.0187 0.00111,0.037 0.01111,0.0768c0.00493,0.0199 0.00921,0.0458 0.03955,0.0925c0.03033,0.0466 0.12435,0.1321 0.24235,0.1321c0.10513,0 0.15278,-0.0415 0.19121,-0.0721c0.02493,0.0297 0.0351,0.0616 0.11958,0.0827c0.13833,0.0347 0.17121,0.011 0.24585,0.0018c0.07464,-0.0092 0.1558,-0.0232 0.23298,-0.0373c0.06972,-0.0127 0.13198,-0.0253 0.18327,-0.0356c0.15548,0.1023 0.32923,0.171 0.52025,0.209c0.2522,0.05 0.5276,0.0659 0.7992,0.0649c0.5433,-0.002 1.0556,-0.0703 1.3016,-0.1249c0.0755,-0.0147 0.1418,-0.0591 0.1839,-0.1234c0.0423,-0.0644 0.0566,-0.143 0.0399,-0.2179c-0.0167,-0.0752 -0.0631,-0.1403 -0.1285,-0.1806c-0.0654,-0.0403 -0.1443,-0.0524 -0.219,-0.0337l0.0003,-0.0005c-0.1705,0.038 -0.6867,0.1093 -1.1801,0.1112c-0.2466,0.001 -0.4911,-0.0151 -0.6861,-0.0538c-0.1948,-0.0388 -0.33253,-0.1072 -0.377,-0.1517l-0.1107,-0.0684c-0.00016,0 -0.05209,-0.0124 -0.05209,-0.0124c-0.00016,0 -0.03462,-0.0029 -0.0432,-0.0027c-0.01715,0.0001 -0.02334,0.0011 -0.0289,0.0017c-0.01096,0.0013 -0.01541,0.0024 -0.02001,0.0032c-0.00937,0.0016 -0.01668,0.0027 -0.02541,0.0044c-0.01747,0.0034 -0.03939,0.0081 -0.06575,0.0134c-0.05288,0.0106 -0.12245,0.0243 -0.19391,0.0373c-0.05654,0.0105 -0.10927,0.0184 -0.15834,0.0254c-0.00047,-0.0006 -0.00047,-0.0011 -0.00095,-0.0017c-0.03573,-0.0524 -0.09386,-0.1382 -0.23346,-0.1725c-0.01413,-0.0035 -0.02255,0.013 -0.03684,0.0116c-0.00937,-0.1015 -0.01779,-0.2069 -0.09386,-0.3286c-0.04177,-0.0667 -0.11514,-0.1423 -0.21837,-0.1769c-0.10323,-0.0345 -0.21361,-0.0194 -0.29794,0.0143c-0.2325,0.0931 -0.41481,0.2703 -0.58427,0.4563c-0.01191,-0.2398 -0.02477,-0.516 -0.08496,-0.8792c-0.03923,-0.236 -0.0891,-0.469 -0.15882,-0.6705c-0.06987,-0.2016 -0.13086,-0.3947 -0.36336,-0.5109c-0.19345,-0.0967 -0.39705,-0.1312 -0.59859,-0.1196z" fill="#f37536" fill-opacity="1"></path></g></g></g></g></svg>