<?xml version="1.0" encoding="UTF-8"?>
<svg id="SVGDoc" width="22" height="19" xmlns="http://www.w3.org/2000/svg" version="1.1" xmlns:xlink="http://www.w3.org/1999/xlink" xmlns:avocode="https://avocode.com/" viewBox="0 0 22 19"><defs></defs><desc>Generated with Avocode.</desc><g><g><title>Group 1</title><g><title>Rectangle 31</title></g><g><title>Group</title><g><title>Vector</title><path d="M12.3688,15.571v1.6867h-12.3688v-1.6867zM9.53324,11.5622v0.00011c-0.00005,-0.00004 -0.0001,-0.00007 -0.00015,-0.00011zM9.53324,11.56231c1.14883,0.8311 1.95547,2.07765 2.22436,3.49529h-11.17105c0.26889,-1.2955 0.9779,-2.4444 1.95558,-3.2754v1.2955c0,0.1468 0.12226,0.2445 0.24452,0.2445c0.12225,0 0.24451,-0.0979 0.24451,-0.2445v-1.6621c0.53777,-0.3424 1.14888,-0.6111 1.78438,-0.7823l-0.00017,2.9089c0,0.5622 0.46448,1.0266 1.02666,1.0266h0.68444c0.56217,0 1.02665,-0.4644 1.02665,-1.0266v-2.9089c0.53778,0.1466 1.02662,0.3422 1.4911,0.6111v1.8333c0,0.1468 0.12226,0.2445 0.24451,0.2445c0.12226,0 0.24451,-0.0979 0.24451,-0.2445zM0,17.7466h12.3688v0.5622h-12.3688zM5.84217,14.1044c-0.29326,0 -0.53777,-0.2445 -0.53777,-0.5622v-3.1043c0,-0.2932 0.24449,-0.53773 0.53777,-0.53773h0.68444c0.29326,0 0.53777,0.24453 0.53777,0.53773v3.1287c0,0.2933 -0.2445,0.5378 -0.53777,0.5378zM11.562,13.1511c-0.1466,-0.2689 -0.3176,-0.5378 -0.5132,-0.7822l10.951,-0.0001v0.7823zM19.9222,0.7824c0,2.37118 0.8312,4.42445 2.0778,5.52439v5.59772h-11.391c-1.22222,-1.2711 -2.64002,-1.6623 -2.95784,-1.7356l-0.1712,-0.049c-0.09786,-0.31778 -0.34221,-0.56229 -0.66003,-0.65999v-3.15322c1.24678,-1.09999 2.07784,-3.1533 2.07784,-5.52439c0,-0.21996 -0.02438,-0.41554 -0.02438,-0.61111l0.07332,-0.17119h3.59309l1.8823,3.83783l1.8822,-3.83783h3.5688l0.0733,0.17119c-0.0244,0.19557 -0.0244,0.41552 -0.0244,0.6111zM12.5643,7.45561l-1.98,0.97768l-1.97989,-0.97768v2.59109h3.95989zM12.54,6.62452h-3.93555v0.29328l1.97995,0.97768l1.9799,-0.97768zM20.2398,7.45561l-1.98,0.97768l-1.9799,-0.97768v2.59109h3.9599zM20.2399,6.62452h-3.96v0.29328l1.98,0.97768l1.9799,-0.97768zM12.2464,14.9844c-0.0977,-0.4888 -0.2443,-0.9289 -0.4399,-1.3444h10.1933v4.6688h-9.1422v-3.2267h-0.5867l-0.0243,-0.0977z" fill="#f37536" fill-opacity="1"></path></g></g></g></g></svg>